<svg xmlns="http://www.w3.org/2000/svg" width="96" height="96" viewBox="-25 -40 220 300">
  <path 
    fill="#fff"
    d="M31.47,58.5c-.1-25.81,16.42-40.13,46.75-40.23,21.82-.08,25.72,14.2,25.72,19.39,0,9.94-14.06,20.48-14.06,20.48,0,0,.78,6.19,12.85,6.14,12.07-.05,23.83-8.02,23.76-27.96-.06-22.91-24.06-33.38-47.78-33.29C58.87,3.09,6.24,5.88,6.42,58.13c.18,46.41,87.76,50.5,87.83,80.21.12,32.27-36.08,40.96-48.33,40.96s-17.23-8.67-17.25-13.43c-.09-26.13,25.92-33.41,25.92-33.41,0-1.95-1.52-10.64-11.59-10.6-25.95.05-36.28,22.36-36.21,44.14.07,18.53,13.16,30.09,32.94,30.01,37.82-.14,80.46-18.59,80.3-59.56-.14-38.32-88.46-48.33-88.57-77.96Z"
  />
</svg>
